M48
; DRILL file {KiCad 8.0.7} date 2024-12-25T23:05:28+0100
; FORMAT={-:-/ absolute / inch / decimal}
; #@! TF.CreationDate,2024-12-25T23:05:28+01:00
; #@! TF.GenerationSoftware,Kicad,Pcbnew,8.0.7
; #@! TF.FileFunction,Plated,1,2,PTH
FMAT,2
INCH
; #@! TA.AperFunction,Plated,PTH,ViaDrill
T1C0.0118
; #@! TA.AperFunction,Plated,PTH,ComponentDrill
T2C0.0280
; #@! TA.AperFunction,Plated,PTH,ComponentDrill
T3C0.0295
; #@! TA.AperFunction,Plated,PTH,ViaDrill
T4C0.0315
; #@! TA.AperFunction,Plated,PTH,ComponentDrill
T5C0.0315
; #@! TA.AperFunction,Plated,PTH,ComponentDrill
T6C0.0354
; #@! TA.AperFunction,Plated,PTH,ComponentDrill
T7C0.0591
; #@! TA.AperFunction,Plated,PTH,ComponentDrill
T8C0.0598
; #@! TA.AperFunction,Plated,PTH,ComponentDrill
T9C0.0689
; #@! TA.AperFunction,Plated,PTH,ComponentDrill
T10C0.1260
%
G90
G05
T1
X4.8838Y-4.3877
X4.9066Y-4.428
X5.0079Y-4.0709
X5.4715Y-2.4553
X5.4724Y-2.5396
X5.8779Y-3.1047
X5.8799Y-3.1747
X5.897Y-2.8229
X5.9273Y-3.4726
X5.9372Y-2.1747
X5.9388Y-2.3053
X5.9506Y-2.8721
X5.9672Y-2.9719
X5.9756Y-3.1232
X5.9824Y-3.0173
X6.1518Y-2.711
X6.1685Y-2.6056
X6.2118Y-2.8117
X6.2447Y-2.3395
X6.2743Y-3.5681
X6.2867Y-3.1617
X6.7704Y-2.5454
X6.8352Y-3.0729
X6.8386Y-3.3732
X6.9921Y-2.7953
T2
X3.3841Y-3.7124
X3.6841Y-3.7124
T3
X4.0096Y-4.4053
X4.0096Y-4.7053
X4.9323Y-5.3504
X4.9362Y-5.4724
X5.2323Y-5.3504
X5.2362Y-5.4724
X5.526Y-5.3228
X5.576Y-5.2728
X5.626Y-5.3228
X5.6693Y-5.5472
X5.9693Y-5.5472
X6.0406Y-5.3217
X6.0906Y-5.2717
X6.1406Y-5.3217
T4
X6.1969Y-3.315
X6.1969Y-3.4724
X6.6024Y-2.7677
T5
X3.2598Y-4.6083
X3.2598Y-4.7067
X3.3923Y-4.3959
X3.3923Y-4.4959
X3.3923Y-4.5959
X3.3923Y-4.6959
X3.4593Y-5.0348
X3.5577Y-5.0348
X3.6923Y-4.3959
X3.6923Y-4.4959
X3.6923Y-4.5959
X3.6923Y-4.6959
X3.878Y-5.0348
X3.9724Y-2.1134
X3.9764Y-5.0348
X4.0709Y-2.1134
X4.0827Y-3.2165
X4.0827Y-3.6165
X4.2598Y-2.0039
X4.2724Y-2.7055
X4.2874Y-3.2165
X4.2874Y-3.6165
X4.314Y-4.9081
X4.314Y-5.3081
X4.315Y-4.3827
X4.315Y-4.7827
X4.3583Y-2.0039
X4.3709Y-2.7055
X4.4911Y-4.3809
X4.4911Y-4.7809
X4.4911Y-4.9081
X4.4911Y-5.3081
X4.4921Y-3.2165
X4.4921Y-3.6165
X4.6683Y-4.3809
X4.6683Y-4.7809
X4.6683Y-4.9081
X4.6683Y-5.3081
X4.7772Y-2.0193
X4.7772Y-2.1193
X4.7772Y-2.2193
X4.7772Y-2.3193
X4.7772Y-2.4193
X4.7772Y-2.5193
X4.7772Y-2.6193
X4.7772Y-2.7193
X4.7772Y-2.8193
X4.7772Y-2.9193
X4.7772Y-3.0193
X4.7772Y-3.1193
X4.7772Y-3.2193
X4.7772Y-3.3193
X4.7772Y-3.4193
X4.7772Y-3.5193
X4.7772Y-3.6193
X4.7772Y-3.7193
X4.7772Y-3.8193
X4.7772Y-3.9193
X5.3772Y-2.0193
X5.3772Y-2.1193
X5.3772Y-2.2193
X5.3772Y-2.3193
X5.3772Y-2.4193
X5.3772Y-2.5193
X5.3772Y-2.6193
X5.3772Y-2.7193
X5.3772Y-2.8193
X5.3772Y-2.9193
X5.3772Y-3.0193
X5.3772Y-3.1193
X5.3772Y-3.2193
X5.3772Y-3.3193
X5.3772Y-3.4193
X5.3772Y-3.5193
X5.3772Y-3.6193
X5.3772Y-3.7193
X5.3772Y-3.8193
X5.3772Y-3.9193
X5.3965Y-4.8449
X5.3965Y-5.048
X5.4449Y-4.399
X5.4449Y-4.4974
X5.6827Y-4.1732
X5.7065Y-2.0193
X5.7065Y-2.1193
X5.7065Y-2.2193
X5.7065Y-2.3193
X5.7065Y-2.4193
X5.7065Y-2.5193
X5.7065Y-2.6193
X5.7065Y-2.7193
X5.7065Y-2.8193
X5.7065Y-2.9193
X5.7126Y-3.2181
X5.7126Y-3.3181
X5.7126Y-3.4181
X5.7126Y-3.5181
X5.7126Y-3.6181
X5.7126Y-3.7181
X5.7126Y-3.8181
X5.7126Y-3.9181
X5.7965Y-4.8449
X5.7965Y-5.048
X5.9323Y-4.8449
X5.9323Y-5.048
X6.0065Y-2.0193
X6.0065Y-2.1193
X6.0065Y-2.2193
X6.0065Y-2.3193
X6.0065Y-2.4193
X6.0065Y-2.5193
X6.0065Y-2.6193
X6.0065Y-2.7193
X6.0065Y-2.8193
X6.0065Y-2.9193
X6.0126Y-3.2181
X6.0126Y-3.3181
X6.0126Y-3.4181
X6.0126Y-3.5181
X6.0126Y-3.6181
X6.0126Y-3.7181
X6.0126Y-3.8181
X6.0126Y-3.9181
X6.0827Y-4.1732
X6.315Y-2.0173
X6.315Y-2.1173
X6.315Y-2.2173
X6.315Y-2.3173
X6.315Y-2.4173
X6.315Y-2.5173
X6.315Y-2.6173
X6.315Y-2.7173
X6.315Y-2.8173
X6.315Y-2.9173
X6.315Y-3.0173
X6.315Y-3.1173
X6.315Y-3.2173
X6.315Y-3.3173
X6.3323Y-4.8449
X6.3323Y-5.048
X6.4681Y-4.8449
X6.8681Y-4.8449
X6.915Y-2.0173
X6.915Y-2.1173
X6.915Y-2.2173
X6.915Y-2.3173
X6.915Y-2.4173
X6.915Y-2.5173
X6.915Y-2.6173
X6.915Y-2.7173
X6.915Y-2.8173
X6.915Y-2.9173
X6.915Y-3.0173
X6.915Y-3.1173
X6.915Y-3.2173
X6.915Y-3.3173
X7.1654Y-2.0173
X7.1654Y-2.1173
X7.1654Y-2.2173
X7.1654Y-2.3173
X7.1654Y-2.4173
X7.1654Y-2.5173
X7.1654Y-2.6173
X7.1654Y-2.7173
X7.1654Y-2.8173
X7.1654Y-2.9173
X7.1654Y-3.0173
X7.1654Y-3.1173
X7.1654Y-3.2173
X7.1654Y-3.3173
X7.7654Y-2.0173
X7.7654Y-2.1173
X7.7654Y-2.2173
X7.7654Y-2.3173
X7.7654Y-2.4173
X7.7654Y-2.5173
X7.7654Y-2.6173
X7.7654Y-2.7173
X7.7654Y-2.8173
X7.7654Y-2.9173
X7.7654Y-3.0173
X7.7654Y-3.1173
X7.7654Y-3.2173
X7.7654Y-3.3173
T6
X3.8701Y-2.9094
X3.9701Y-2.9094
X4.2362Y-2.9094
X4.3362Y-2.9094
X5.6878Y-4.4949
X5.7878Y-4.4949
X6.1437Y-4.4949
X6.2437Y-4.4949
X6.5996Y-4.4949
X6.6996Y-4.4949
T7
X4.311Y-2.2402
X4.311Y-2.4331
T8
X3.5496Y-1.9882
X3.7496Y-1.9882
T9
X3.4049Y-2.6372
X3.4049Y-2.8183
X3.4049Y-2.9994
X3.677Y-2.6372
X3.677Y-2.8183
X3.677Y-2.9994
X4.9309Y-4.5669
X4.9309Y-4.748
X4.9309Y-4.9291
X5.203Y-4.5669
X5.203Y-4.748
X5.203Y-4.9291
T10
X3.2913Y-5.5
X3.3022Y-1.9567
X7.937Y-5.5
X7.9478Y-1.9567
M30
